# xmcd
# Track frame offsets:
# 150
# 12485
# 26085
# 39585
# 51642
# 64650
# 77292
# 91410
# 106802
# 119167
# 132377
# 145347
# 159540
# 170745
#
# Disc length: 2442 seconds
# Revision: 0
# Processed by: cddbd v1.4PL0 Copyright (c) Steve Scherf et al.
# Submitted via: VisiTrax 2.9.5.180 - For more info visit www.synapsa.com
#
DISCID=c609880e
DTITLE=Joe Moore - It's a hard way to make an easy living
DYEAR=1900
DGENRE=Irsk
TTITLE0=Mamas rocking chair
TTITLE1=If the world had a front porch
TTITLE2=Six Pallbeares
TTITLE3=Hanging out
TTITLE4=In my arms tonight
TTITLE5=With his hands
TTITLE6=Love without end, Amen
TTITLE7=Mr. Millar
TTITLE8=The little dutch maiden
TTITLE9=Holding things together
TTITLE10=A hard way to make an easy living
TTITLE11=Atlanta anymore
TTITLE12=Grundy county auction
TTITLE13=I've enjoyed as much of this as I can stand
EXTD=
EXTT0=
EXTT1=
EXTT2=
EXTT3=
EXTT4=
EXTT5=
EXTT6=
EXTT7=
EXTT8=
EXTT9=
EXTT10=
EXTT11=
EXTT12=
EXTT13=
PLAYORDER=
